<svg xmlns="http://www.w3.org/2000/svg" viewBox="0 0 1600 900" preserveAspectRatio="xMidYMid slice"><style>.g1{animation:spin 14s linear infinite}.g2{animation:spin 9.5s linear infinite reverse}@keyframes spin{to{transform:rotate(360deg)}}.fl{animation:fl 5s ease-in-out infinite}.fl2{animation:fl 6.5s ease-in-out infinite reverse}@keyframes fl{0%,100%{transform:translateY(0)}50%{transform:translateY(-14px)}}.bar{transform-box:fill-box;transform-origin:50% 100%;animation:bar 3s ease-in-out infinite alternate}@keyframes bar{from{transform:scaleY(.7)}to{transform:scaleY(1)}}.dash{stroke-dasharray:14 12;animation:dash 1.4s linear infinite}@keyframes dash{to{stroke-dashoffset:-26}}.tw{animation:tw 3s ease-in-out infinite}@keyframes tw{0%,100%{opacity:.15}50%{opacity:.9}}@media (prefers-reduced-motion: reduce){*{animation:none !important}}</style>
<defs><linearGradient id="bg" x1="0" y1="0" x2="1" y2="1"><stop offset="0" stop-color="#042f3a"/><stop offset="0.55" stop-color="#0e7490"/><stop offset="1" stop-color="#0891b2"/></linearGradient><pattern id="grid" width="60" height="60" patternUnits="userSpaceOnUse"><path d="M 60 0 H 0 V 60" fill="none" stroke="#fff" stroke-opacity="0.07" stroke-width="2"/></pattern></defs>
<rect width="1600" height="900" fill="url(#bg)"/><rect width="1600" height="900" fill="url(#grid)"/>
<g fill="#fff" opacity="0.06"><circle cx="1400" cy="150" r="190"/><circle cx="240" cy="720" r="150"/></g>
<g fill="#fff"><circle class="tw" cx="200" cy="140" r="3"/><circle class="tw" cx="1520" cy="540" r="3" style="animation-delay:1.6s"/><circle class="tw" cx="1230" cy="70" r="2.5" style="animation-delay:2.2s"/></g>
<rect x="0" y="790" width="1600" height="110" fill="#03242d"/>
<!-- dashboard -->
<g class="fl"><rect x="900" y="170" width="500" height="360" rx="22" fill="#f8fafc"/><rect x="900" y="170" width="500" height="44" rx="22" fill="#e2e8f0"/><rect x="900" y="196" width="500" height="18" fill="#e2e8f0"/><g fill="#94a3b8"><circle cx="928" cy="192" r="6"/><circle cx="948" cy="192" r="6"/><circle cx="968" cy="192" r="6"/></g>
<rect x="924" y="236" width="140" height="84" rx="12" fill="#cffafe"/><text x="940" y="270" font-family="system-ui,sans-serif" font-size="14" fill="#155e75">Orders</text><text x="940" y="304" font-family="system-ui,sans-serif" font-size="30" font-weight="800" fill="#0e7490">248</text>
<rect x="1080" y="236" width="140" height="84" rx="12" fill="#fef3c7"/><text x="1096" y="270" font-family="system-ui,sans-serif" font-size="14" fill="#92400e">Customers</text><text x="1096" y="304" font-family="system-ui,sans-serif" font-size="30" font-weight="800" fill="#b45309">96</text>
<rect x="1236" y="236" width="140" height="84" rx="12" fill="#dcfce7"/><text x="1252" y="270" font-family="system-ui,sans-serif" font-size="14" fill="#166534">Paid</text><text x="1252" y="304" font-family="system-ui,sans-serif" font-size="30" font-weight="800" fill="#15803d">91%</text>
<rect x="924" y="340" width="452" height="170" rx="12" fill="#f1f5f9"/>
<g fill="#22d3ee"><rect class="bar" x="952" y="440" width="38" height="52" rx="6"/><rect class="bar" x="1012" y="410" width="38" height="82" rx="6" style="animation-delay:.3s"/><rect class="bar" x="1072" y="428" width="38" height="64" rx="6" style="animation-delay:.6s"/><rect class="bar" x="1132" y="380" width="38" height="112" rx="6" style="animation-delay:.9s"/><rect class="bar" x="1192" y="396" width="38" height="96" rx="6" style="animation-delay:1.2s"/></g><rect class="bar" x="1252" y="360" width="38" height="132" rx="6" fill="#fbbf24" style="animation-delay:1.5s"/>
<path d="M 940 500 h 420" stroke="#cbd5e1" stroke-width="3"/></g>
<!-- gears -->
<g class="g1" style="transform-origin:700px 420px"><path d="M 819.1 405.6 L 819.1 434.4 L 791.8 438.1 L 784.9 459.4 L 804.8 478.4 L 787.9 501.6 L 763.7 488.6 L 745.6 501.8 L 750.5 528.9 L 723.2 537.7 L 711.2 512.9 L 688.8 512.9 L 676.8 537.7 L 649.5 528.9 L 654.4 501.8 L 636.3 488.6 L 612.1 501.6 L 595.2 478.4 L 615.1 459.4 L 608.2 438.1 L 580.9 434.4 L 580.9 405.6 L 608.2 401.9 L 615.1 380.6 L 595.2 361.6 L 612.1 338.4 L 636.3 351.4 L 654.4 338.2 L 649.5 311.1 L 676.8 302.3 L 688.8 327.1 L 711.2 327.1 L 723.2 302.3 L 750.5 311.1 L 745.6 338.2 L 763.7 351.4 L 787.9 338.4 L 804.8 361.6 L 784.9 380.6 L 791.8 401.9 Z" fill="#fbbf24"/><circle cx="700" cy="420" r="54.0" fill="#0e7490"/><circle cx="700" cy="420" r="24.0" fill="#fbbf24"/></g>
<g class="g2" style="transform-origin:870px 600px"><path d="M 949.4 590.4 L 949.4 609.6 L 930.1 616.8 L 924.4 630.6 L 932.9 649.4 L 919.4 662.9 L 900.6 654.4 L 886.8 660.1 L 879.6 679.4 L 860.4 679.4 L 853.2 660.1 L 839.4 654.4 L 820.6 662.9 L 807.1 649.4 L 815.6 630.6 L 809.9 616.8 L 790.6 609.6 L 790.6 590.4 L 809.9 583.2 L 815.6 569.4 L 807.1 550.6 L 820.6 537.1 L 839.4 545.6 L 853.2 539.9 L 860.4 520.6 L 879.6 520.6 L 886.8 539.9 L 900.6 545.6 L 919.4 537.1 L 932.9 550.6 L 924.4 569.4 L 930.1 583.2 Z" fill="#67e8f9"/><circle cx="870" cy="600" r="36.0" fill="#0e7490"/><circle cx="870" cy="600" r="16.0" fill="#67e8f9"/></g>
<g class="g2" style="transform-origin:560px 620px"><path d="M 621.6 612.6 L 621.6 627.4 L 606.6 633.0 L 602.1 643.7 L 608.8 658.3 L 598.3 668.8 L 583.7 662.1 L 573.0 666.6 L 567.4 681.6 L 552.6 681.6 L 547.0 666.6 L 536.3 662.1 L 521.7 668.8 L 511.2 658.3 L 517.9 643.7 L 513.4 633.0 L 498.4 627.4 L 498.4 612.6 L 513.4 607.0 L 517.9 596.3 L 511.2 581.7 L 521.7 571.2 L 536.3 577.9 L 547.0 573.4 L 552.6 558.4 L 567.4 558.4 L 573.0 573.4 L 583.7 577.9 L 598.3 571.2 L 608.8 581.7 L 602.1 596.3 L 606.6 607.0 Z" fill="#f8fafc"/><circle cx="560" cy="620" r="27.9" fill="#0e7490"/><circle cx="560" cy="620" r="12.4" fill="#f8fafc"/></g>
<!-- connector -->
<path class="dash" d="M 770 330 Q 830 280 900 300" fill="none" stroke="#fff" stroke-opacity="0.7" stroke-width="5" stroke-linecap="round"/>
</svg>